<?xml version="1.0" encoding="UTF-8" standalone="no"?><svg xmlns="http://www.w3.org/2000/svg" xmlns:xlink="http://www.w3.org/1999/xlink" contentScriptType="application/ecmascript" contentStyleType="text/css" height="357px" preserveAspectRatio="none" style="width:913px;height:357px;" version="1.1" viewBox="0 0 913 357" width="913px" zoomAndPan="magnify"><defs><filter height="300%" id="f6p9laah6kwt8" width="300%" x="-1" y="-1"><feGaussianBlur result="blurOut" stdDeviation="2.0"/><feColorMatrix in="blurOut" result="blurOut2" type="matrix" values="0 0 0 0 0 0 0 0 0 0 0 0 0 0 0 0 0 0 .4 0"/><feOffset dx="4.0" dy="4.0" in="blurOut2" result="blurOut3"/><feBlend in="SourceGraphic" in2="blurOut3" mode="normal"/></filter></defs><g><line style="stroke: #A80036; stroke-width: 1.0;" x1="57" x2="57" y1="38.4883" y2="266.3516"/><line style="stroke: #A80036; stroke-width: 1.0; stroke-dasharray: 1.0,4.0;" x1="57" x2="57" y1="266.3516" y2="307.3066"/><line style="stroke: #A80036; stroke-width: 1.0;" x1="57" x2="57" y1="307.3066" y2="317.3066"/><line style="stroke: #A80036; stroke-width: 1.0;" x1="155" x2="155" y1="38.4883" y2="266.3516"/><line style="stroke: #A80036; stroke-width: 1.0; stroke-dasharray: 1.0,4.0;" x1="155" x2="155" y1="266.3516" y2="307.3066"/><line style="stroke: #A80036; stroke-width: 1.0;" x1="155" x2="155" y1="307.3066" y2="317.3066"/><line style="stroke: #A80036; stroke-width: 1.0;" x1="251" x2="251" y1="38.4883" y2="266.3516"/><line style="stroke: #A80036; stroke-width: 1.0; stroke-dasharray: 1.0,4.0;" x1="251" x2="251" y1="266.3516" y2="307.3066"/><line style="stroke: #A80036; stroke-width: 1.0;" x1="251" x2="251" y1="307.3066" y2="317.3066"/><line style="stroke: #A80036; stroke-width: 1.0;" x1="404.5" x2="404.5" y1="38.4883" y2="266.3516"/><line style="stroke: #A80036; stroke-width: 1.0; stroke-dasharray: 1.0,4.0;" x1="404.5" x2="404.5" y1="266.3516" y2="307.3066"/><line style="stroke: #A80036; stroke-width: 1.0;" x1="404.5" x2="404.5" y1="307.3066" y2="317.3066"/><line style="stroke: #A80036; stroke-width: 1.0;" x1="566.5" x2="566.5" y1="38.4883" y2="266.3516"/><line style="stroke: #A80036; stroke-width: 1.0; stroke-dasharray: 1.0,4.0;" x1="566.5" x2="566.5" y1="266.3516" y2="307.3066"/><line style="stroke: #A80036; stroke-width: 1.0;" x1="566.5" x2="566.5" y1="307.3066" y2="317.3066"/><line style="stroke: #A80036; stroke-width: 1.0;" x1="772.5" x2="772.5" y1="38.4883" y2="266.3516"/><line style="stroke: #A80036; stroke-width: 1.0; stroke-dasharray: 1.0,4.0;" x1="772.5" x2="772.5" y1="266.3516" y2="307.3066"/><line style="stroke: #A80036; stroke-width: 1.0;" x1="772.5" x2="772.5" y1="307.3066" y2="317.3066"/><rect fill="#FEFECE" filter="url(#f6p9laah6kwt8)" height="30.4883" style="stroke: #A80036; stroke-width: 1.5;" width="94" x="8" y="3"/><text fill="#000000" font-family="sans-serif" font-size="14" lengthAdjust="spacingAndGlyphs" textLength="80" x="15" y="23.5352">peltak.main</text><rect fill="#FEFECE" filter="url(#f6p9laah6kwt8)" height="30.4883" style="stroke: #A80036; stroke-width: 1.5;" width="94" x="8" y="316.3066"/><text fill="#000000" font-family="sans-serif" font-size="14" lengthAdjust="spacingAndGlyphs" textLength="80" x="15" y="336.8418">peltak.main</text><rect fill="#FEFECE" filter="url(#f6p9laah6kwt8)" height="30.4883" style="stroke: #A80036; stroke-width: 1.5;" width="75" x="116" y="3"/><text fill="#000000" font-family="sans-serif" font-size="14" lengthAdjust="spacingAndGlyphs" textLength="61" x="123" y="23.5352">root_cli()</text><rect fill="#FEFECE" filter="url(#f6p9laah6kwt8)" height="30.4883" style="stroke: #A80036; stroke-width: 1.5;" width="75" x="116" y="316.3066"/><text fill="#000000" font-family="sans-serif" font-size="14" lengthAdjust="spacingAndGlyphs" textLength="61" x="123" y="336.8418">root_cli()</text><rect fill="#FEFECE" filter="url(#f6p9laah6kwt8)" height="30.4883" style="stroke: #A80036; stroke-width: 1.5;" width="88" x="205" y="3"/><text fill="#000000" font-family="sans-serif" font-size="14" lengthAdjust="spacingAndGlyphs" textLength="74" x="212" y="23.5352">conf.load()</text><rect fill="#FEFECE" filter="url(#f6p9laah6kwt8)" height="30.4883" style="stroke: #A80036; stroke-width: 1.5;" width="88" x="205" y="316.3066"/><text fill="#000000" font-family="sans-serif" font-size="14" lengthAdjust="spacingAndGlyphs" textLength="74" x="212" y="336.8418">conf.load()</text><rect fill="#FEFECE" filter="url(#f6p9laah6kwt8)" height="30.4883" style="stroke: #A80036; stroke-width: 1.5;" width="177" x="314.5" y="3"/><text fill="#000000" font-family="sans-serif" font-size="14" lengthAdjust="spacingAndGlyphs" textLength="163" x="321.5" y="23.5352">conf.load_yaml_config()</text><rect fill="#FEFECE" filter="url(#f6p9laah6kwt8)" height="30.4883" style="stroke: #A80036; stroke-width: 1.5;" width="177" x="314.5" y="316.3066"/><text fill="#000000" font-family="sans-serif" font-size="14" lengthAdjust="spacingAndGlyphs" textLength="163" x="321.5" y="336.8418">conf.load_yaml_config()</text><rect fill="#FEFECE" filter="url(#f6p9laah6kwt8)" height="30.4883" style="stroke: #A80036; stroke-width: 1.5;" width="119" x="505.5" y="3"/><text fill="#000000" font-family="sans-serif" font-size="14" lengthAdjust="spacingAndGlyphs" textLength="105" x="512.5" y="23.5352">util.load_yaml()</text><rect fill="#FEFECE" filter="url(#f6p9laah6kwt8)" height="30.4883" style="stroke: #A80036; stroke-width: 1.5;" width="119" x="505.5" y="316.3066"/><text fill="#000000" font-family="sans-serif" font-size="14" lengthAdjust="spacingAndGlyphs" textLength="105" x="512.5" y="336.8418">util.load_yaml()</text><rect fill="#FEFECE" filter="url(#f6p9laah6kwt8)" height="30.4883" style="stroke: #A80036; stroke-width: 1.5;" width="264" x="638.5" y="3"/><text fill="#000000" font-family="sans-serif" font-size="14" lengthAdjust="spacingAndGlyphs" textLength="246" x="645.5" y="23.5352">&lt;command_file&gt; from pelconf.yaml</text><rect fill="#FEFECE" filter="url(#f6p9laah6kwt8)" height="30.4883" style="stroke: #A80036; stroke-width: 1.5;" width="264" x="638.5" y="316.3066"/><text fill="#000000" font-family="sans-serif" font-size="14" lengthAdjust="spacingAndGlyphs" textLength="246" x="645.5" y="336.8418">&lt;command_file&gt; from pelconf.yaml</text><polygon fill="#A80036" points="239,65.7988,249,69.7988,239,73.7988,243,69.7988" style="stroke: #A80036; stroke-width: 1.0;"/><line style="stroke: #A80036; stroke-width: 1.0;" x1="57" x2="245" y1="69.7988" y2="69.7988"/><text fill="#000000" font-family="sans-serif" font-size="13" lengthAdjust="spacingAndGlyphs" textLength="167" x="64" y="65.0566">Load project configuration</text><polygon fill="#A80036" points="393,95.1094,403,99.1094,393,103.1094,397,99.1094" style="stroke: #A80036; stroke-width: 1.0;"/><line style="stroke: #A80036; stroke-width: 1.0;" x1="251" x2="399" y1="99.1094" y2="99.1094"/><text fill="#000000" font-family="sans-serif" font-size="13" lengthAdjust="spacingAndGlyphs" textLength="30" x="258" y="94.3672">Load</text><text fill="#000000" font-family="monospace" font-size="13" lengthAdjust="spacingAndGlyphs" textLength="96" x="292" y="94.0435">pelconf.yaml</text><polygon fill="#A80036" points="555,124.4199,565,128.4199,555,132.4199,559,128.4199" style="stroke: #A80036; stroke-width: 1.0;"/><line style="stroke: #A80036; stroke-width: 1.0;" x1="405" x2="561" y1="128.4199" y2="128.4199"/><text fill="#000000" font-family="sans-serif" font-size="13" lengthAdjust="spacingAndGlyphs" textLength="33" x="412" y="123.6777">Parse</text><text fill="#000000" font-family="monospace" font-size="13" lengthAdjust="spacingAndGlyphs" textLength="96" x="449" y="123.354">pelconf.yaml</text><polygon fill="#A80036" points="760.5,169.041,770.5,173.041,760.5,177.041,764.5,173.041" style="stroke: #A80036; stroke-width: 1.0;"/><line style="stroke: #A80036; stroke-width: 1.0;" x1="405" x2="766.5" y1="173.041" y2="173.041"/><text fill="#000000" font-family="sans-serif" font-size="13" lengthAdjust="spacingAndGlyphs" textLength="136" x="412" y="152.9883">Import command file.</text><text fill="#000000" font-family="sans-serif" font-size="13" lengthAdjust="spacingAndGlyphs" textLength="261" x="412" y="168.2988">This will run the code in the module root.</text><polygon fill="#A80036" points="416,183.041,406,187.041,416,191.041,412,187.041" style="stroke: #A80036; stroke-width: 1.0;"/><line style="stroke: #A80036; stroke-width: 1.0; stroke-dasharray: 2.0,2.0;" x1="410" x2="771.5" y1="187.041" y2="187.041"/><polygon fill="#A80036" points="760.5,212.3516,770.5,216.3516,760.5,220.3516,764.5,216.3516" style="stroke: #A80036; stroke-width: 1.0;"/><line style="stroke: #A80036; stroke-width: 1.0;" x1="405" x2="766.5" y1="216.3516" y2="216.3516"/><text fill="#000000" font-family="sans-serif" font-size="13" lengthAdjust="spacingAndGlyphs" textLength="168" x="412" y="211.6094">Import next command file.</text><polygon fill="#A80036" points="416,226.3516,406,230.3516,416,234.3516,412,230.3516" style="stroke: #A80036; stroke-width: 1.0;"/><line style="stroke: #A80036; stroke-width: 1.0; stroke-dasharray: 2.0,2.0;" x1="410" x2="771.5" y1="230.3516" y2="230.3516"/><polygon fill="#A80036" points="262,240.3516,252,244.3516,262,248.3516,258,244.3516" style="stroke: #A80036; stroke-width: 1.0;"/><line style="stroke: #A80036; stroke-width: 1.0; stroke-dasharray: 2.0,2.0;" x1="256" x2="404" y1="244.3516" y2="244.3516"/><polygon fill="#A80036" points="68,254.3516,58,258.3516,68,262.3516,64,258.3516" style="stroke: #A80036; stroke-width: 1.0;"/><line style="stroke: #A80036; stroke-width: 1.0; stroke-dasharray: 2.0,2.0;" x1="62" x2="250" y1="258.3516" y2="258.3516"/><text fill="#000000" font-family="sans-serif" font-size="11" lengthAdjust="spacingAndGlyphs" textLength="307" x="261.25" y="290.9863">Pass control to click to resolve and execute the command</text><!--
@startuml
participant "peltak.main" as main
participant "root_cli()" as root_cli
participant "conf.load()" as load
participant "conf.load_yaml_config()" as load_yaml_config
participant "util.load_yaml()" as load_yaml
participant "<command_file> from pelconf.yaml " as command

main -> load: Load project configuration
load -> load_yaml_config: Load ""pelconf.yaml""
load_yaml_config -> load_yaml: Parse ""pelconf.yaml""
load_yaml_config -> command: Import command file. \nThis will run the code in the module root.
load_yaml_config <- - command
load_yaml_config -> command: Import next command file.
load_yaml_config <- - command
load <- - load_yaml_config
main <- - load
... Pass control to click to resolve and execute the command ...

@enduml

PlantUML version 1.2019.09(Mon Aug 26 17:19:51 BST 2019)
(GPL source distribution)
Java Runtime: Java(TM) SE Runtime Environment
JVM: Java HotSpot(TM) 64-Bit Server VM
Java Version: 9.0.1+11
Operating System: Mac OS X
OS Version: 10.14.6
Default Encoding: UTF-8
Language: en
Country: GB
--></g></svg>